<svg width="241.000000" height="89.050781" viewBox="0 0 241 89.0508" fill="none" xmlns="http://www.w3.org/2000/svg" xmlns:xlink="http://www.w3.org/1999/xlink">
	<desc>
			Created with Pixso.
	</desc>
	<defs/>
	<rect id="Color=Color Dark" width="241.000000" height="82.999847" transform="translate(0.000000 1.770508)" fill="#FFFFFF" fill-opacity="0"/>
	<path id="&amp;" d="M118.7 89.01Q119.07 89.05 119.44 89.05Q120.76 89.05 121.72 88.77Q124.86 88 126.96 86.09Q127.99 85.16 128.76 83.95Q131.14 80.3 132.04 75.3Q132.95 70.3 132.95 65.35Q132.95 63.72 132.86 62.11Q132.77 60.49 132.67 58.95Q134.97 57.44 137.02 55.63Q139.46 53.47 141.53 50.9Q142.11 50.19 142.64 49.46Q145.67 45.3 147.53 40.28Q148.21 38.37 148.86 35.76Q149.53 33.14 149.53 30.67Q149.53 28.58 148.95 26.86Q148.17 24.52 146.56 23.58Q146.46 23.52 146.35 23.46Q145.14 22.84 143.86 22.64Q143.28 22.55 142.67 22.55Q141.35 22.55 140.21 22.86Q139.53 23.02 138.88 23.24Q136.1 24.18 133.67 26.16Q130.67 28.58 128.49 31.32Q127.9 27.41 127.28 23.37Q126.67 19.32 126.67 15.41Q127.81 14.09 129.23 12.32Q130.67 10.55 131.77 8.46Q132.86 6.37 132.86 4.27Q132.86 3.04 132.49 2.18Q132.09 1.23 131.42 0.62Q131.15 0.37 130.84 0.22Q130.38 -0.01 129.81 -0.01Q129.27 -0.01 128.8 0.18Q128.05 0.48 127.49 1.27Q126.58 2.55 126 3.81Q125.25 5.51 125 7.86Q124.76 10.18 124.76 12.46Q124.76 13.41 124.81 14.37Q124.86 15.32 124.86 16.18Q120.58 20.86 116.37 25Q112.18 29.14 108.37 33.67Q104.58 38.18 101.44 44.18Q98.99 42.5 97.52 40.19Q96.77 38.99 96.27 37.62Q95.9 36.46 95.72 35.37Q95.53 34.28 95.53 33.23Q95.53 31.01 96.19 29.01Q96.69 27.49 97.58 26.09Q98.64 24.41 99.99 22.99Q101.23 21.69 102.72 20.62Q105.81 18.37 109.04 17.6Q110.39 17.32 111.62 17.32L114.18 17.32Q114.45 17.32 114.52 17.21Q114.57 17.11 114.49 16.95Q114.48 16.95 114.48 16.94Q114.38 16.55 112.86 16.55Q111.62 16.55 110.23 16.76Q108.86 16.95 108.48 17.04Q105.04 17.81 101.51 20.3Q99.86 21.45 98.46 22.85Q96.87 24.44 95.6 26.34Q94.42 28.12 93.83 30.07Q93.23 32.03 93.23 34.18Q93.23 35.23 93.41 36.39Q93.62 37.53 94 38.67Q94.63 40.5 95.71 42.02Q96.08 42.55 96.51 43.04Q97.21 43.84 98 44.54Q99.1 45.51 100.37 46.28Q99.44 48.37 98.62 51Q98.27 52.14 98.07 53.3Q97.81 54.83 97.81 56.39Q97.81 57.32 97.9 58.35Q97.95 58.88 98.08 59.39Q98.19 59.84 98.37 60.28Q99.19 62.66 100.84 64.11Q101.89 65.04 103.28 65.58Q105.88 66.58 108.56 66.85Q109.56 66.95 110.58 66.95Q112.67 66.95 114.53 66.72Q116.39 66.49 117.81 66.09Q120.86 65.35 123.67 64.21Q124.67 63.8 125.64 63.34Q127.42 62.51 129.14 61.53Q129.25 64.49 129.04 68.63Q129.01 69.42 128.95 70.21Q128.7 73.55 128.04 76.86Q127.25 80.95 125.39 84Q124.24 85.89 122.56 86.9Q121.53 87.52 120.3 87.81Q119.9 87.91 119.46 87.95Q119.04 88 118.67 88Q118.18 88 117.71 87.92Q116.6 87.74 115.55 87.14Q114.09 86.3 113.14 84.49Q113 84.14 112.82 84.11Q112.75 84.1 112.67 84.14Q112.52 84.23 112.48 84.36Q112.44 84.46 112.49 84.58Q113.09 86.26 114.28 87.28Q114.76 87.69 115.35 88Q116.99 88.86 118.7 89.01ZM128.44 11.46Q127.35 13.32 126.67 14.09Q126.76 12.09 127.09 9.27Q127.44 6.46 128.3 4.65Q128.49 4.09 129.09 3.27Q129.72 2.46 130.3 2.46Q130.5 2.46 130.65 2.55Q130.77 2.63 130.86 2.76Q131.04 3.04 131.14 3.32Q131.25 3.51 131.25 4.09Q131.25 5.41 130.39 7.51Q129.53 9.6 128.44 11.46ZM109.96 46.11Q108.95 46.28 107.9 46.28Q106.43 46.28 105.06 45.89Q104.66 45.77 104.28 45.62Q104.95 44.09 105.6 42.67Q106.28 41.23 107.04 39.9Q108.86 36.46 111 33.28Q113.14 30.09 115.62 27.23Q117.81 24.67 120.18 22.3L120.18 22.3Q122.58 19.9 124.86 17.41Q125.14 21.51 125.56 25.58Q126 29.62 126.49 33.72Q125.53 34.86 123.67 36.9Q121.81 38.95 119.32 41.14Q117.75 42.53 115.99 43.65Q115 44.27 113.95 44.81Q112.01 45.79 109.96 46.11ZM139.69 51.42Q136.5 54.9 132.39 57.53Q132 51.32 130.81 45.04Q129.63 38.76 128.67 32.46Q131.81 29.32 134.95 27.76Q138.09 26.18 140.67 26.18Q142.48 26.18 143.87 26.95Q144.68 27.39 145.35 28.09Q147.16 30 147.16 33.81Q147.16 35.42 146.77 37.37Q146.39 39.32 145.53 41.72Q143.63 46.95 140.23 50.81Q139.96 51.12 139.69 51.42ZM117.28 63.95Q115.72 64.18 114.09 64.18Q113.81 64.18 113.54 64.17Q110.58 64.07 107.67 62.86Q106.64 62.43 105.8 61.76Q104.05 60.36 103.14 57.9Q102.58 55.9 102.58 53.9Q102.58 53.33 102.62 52.75Q102.69 51.71 102.9 50.67Q103.23 49.04 103.62 47.72Q105.53 48.28 107.44 48.28Q108.61 48.28 109.76 48.09Q111.76 47.76 113.67 46.86Q115.08 46.18 116.39 45.35Q117.87 44.41 119.23 43.28Q121.81 41.14 123.72 38.81Q125.63 36.46 126.67 34.67Q127.44 41.04 128.14 47.39Q128.86 53.72 128.95 60Q124.86 62.28 120.09 63.44Q118.86 63.72 117.28 63.95Z" fill="#FFA55C" fill-opacity="1.000000" fill-rule="evenodd"/>
	<path id="Wake Bake" d="M7.63 68.19Q7.86 68.24 8.1 68.24Q9.4 68.24 10.96 66.91Q12.51 65.6 14.12 63.29Q15.73 60.98 17.21 57.98Q18.7 54.98 19.92 51.59Q21.15 48.18 21.92 44.72Q22.21 46.3 22.73 48.39Q23.27 50.47 24.03 52.97Q24.9 55.57 26.1 57.68Q27.3 59.79 28.71 61.07Q30.1 62.31 31.51 62.33Q31.54 62.33 31.57 62.33Q31.67 62.33 31.77 62.32Q33.44 62.2 34.96 59.99Q36.56 57.63 37.62 52.11Q38.1 49.57 38.26 47.07Q38.44 44.58 38.44 42.08L38.44 40.32Q38.44 39.43 38.39 38.58Q39.35 40.21 40.09 40.8Q40.84 41.4 41.94 41.93Q42.13 41.98 42.56 41.79Q42.93 41.63 42.98 41.4Q43 41.35 43 41.31Q43 41.2 42.94 41.15Q42.92 41.13 42.9 41.12Q42.22 40.87 41.53 39.75Q40.84 38.62 40.21 37.25Q39.58 35.88 39.2 34.92Q38.87 34.07 38.41 32.89Q37.96 31.71 37.43 31.04Q37.04 30.46 36.66 30.46Q36.59 30.46 36.53 30.48Q36.29 30.55 36.15 30.94Q35.99 31.42 35.99 32.1Q35.99 32.62 36.08 33.25Q36.17 33.87 36.37 34.44Q36.9 35.84 37.11 38.05Q37.33 40.25 37.33 42.8Q37.33 45.87 37 49.07Q36.66 52.25 35.99 54.97Q35.32 57.68 34.33 59.33Q33.49 60.74 32.42 60.95Q32.24 60.98 32.05 60.98Q30.81 60.98 29.32 59.14Q27.83 57.29 26.05 53.03Q25.18 50.86 24.54 48.32Q23.89 45.77 23.37 43.11Q22.84 40.44 22.31 38.05Q22.08 36.91 21.49 36.67Q21.33 36.61 21.15 36.61Q21.13 36.61 21.11 36.61Q20.56 36.64 20.05 37.43Q19.52 38.24 19.52 39.68Q19.52 41.03 19.62 41.89Q19.71 42.75 20.19 43.57Q19.77 45.96 19.02 48.84Q18.28 51.73 17.37 54.52Q16.45 57.29 15.35 59.36Q14.53 60.94 13.52 62.53Q12.51 64.11 11.48 65.17Q10.45 66.22 9.49 66.22Q9.39 66.22 9.3 66.21Q8.55 66.09 7.96 64.99Q7.29 63.77 6.9 60.75Q6.85 60.27 6.83 59.72Q6.81 59.17 6.81 58.55Q6.81 56.38 7.07 53.55Q7.33 50.72 7.64 47.58Q7.96 44.43 8.21 41.31Q8.48 38.19 8.48 35.4Q8.48 31.71 7.8 29.12Q7.27 27.07 5.99 26.34Q5.66 26.15 5.27 26.05Q5.12 25.99 4.98 25.97Q4.84 25.95 4.64 25.95Q4.31 25.95 4.01 26.03Q3.42 26.18 2.91 26.65Q2.79 26.75 2.68 26.86Q2.08 27.49 1.71 28.35Q1.29 29.36 1.29 30.27Q1.29 30.46 1.31 30.63Q1.33 30.8 1.38 30.98Q1.4 31.11 1.44 31.12Q1.52 31.14 1.69 30.82Q1.96 30.32 2.41 29.48Q2.87 28.64 3.47 27.95Q4.05 27.27 4.65 27.25Q4.67 27.25 4.69 27.25Q4.85 27.25 4.99 27.29Q5.76 27.55 6.08 29.12Q6.47 30.98 6.47 34.02Q6.47 36.46 6.27 39.43Q6.08 42.41 5.81 45.52Q5.55 48.61 5.26 51.54Q4.98 54.46 4.78 56.88Q4.59 59.31 4.59 60.89L4.59 61.64Q4.59 61.99 4.64 62.24Q5.03 65.4 5.94 66.82Q6.68 67.97 7.63 68.19ZM101.05 80.74Q101.3 80.77 101.56 80.77Q102.61 80.77 103.67 80.33Q103.9 80.24 103.97 80.07Q104.01 79.99 104.01 79.9Q104.01 79.87 104 79.83Q103.97 79.54 103.67 79.28Q103.38 79.03 103.07 78.99Q103.01 78.98 102.95 78.98Q102.66 78.98 102.47 79.13Q102.42 79.17 102.37 79.23Q102.13 79.46 101.46 79.46Q100.55 79.46 99.16 78.82Q97.76 78.18 96.37 76.62Q94.98 75.06 94.09 72.27Q93.2 69.48 93.3 65.21Q98.15 64.55 102.44 62.62Q106.74 60.7 110.22 58.07Q113.7 55.42 116.01 52.59Q117.59 50.62 118.47 48.77Q119.36 46.92 119.36 45.34Q119.36 44.44 119.03 43.67Q118.58 42.61 117.51 41.81Q115.67 40.44 111.54 40.44Q110.43 40.44 109.13 40.57Q107.84 40.69 106.35 40.92Q110.77 37.85 112.64 35.31Q114.52 32.77 114.52 30.84Q114.52 29.91 114.15 29.17Q113.69 28.26 112.69 27.63Q110.86 26.47 107.95 26.47Q105.82 26.47 103.3 27.15Q100.79 27.82 98.19 29.21Q96.18 30.27 94.3 31.73Q92.43 33.2 90.92 34.85Q89.41 36.5 88.52 38.14Q87.64 39.77 87.64 41.21Q87.64 42.18 87.99 42.66Q88.35 43.14 88.69 43.14Q88.88 43.14 89.01 43.06Q89.41 42.82 89.41 41.93Q89.41 41.84 89.38 41.72Q89.36 41.6 89.36 41.5Q89.22 40.49 89.79 39.04Q90.37 37.57 91.54 35.92Q92.72 34.25 94.42 32.7Q96.13 31.14 98.24 29.98Q100.79 28.59 103.19 27.97Q105.59 27.34 107.51 27.34Q109.96 27.34 111.47 28.23Q112.34 28.74 112.71 29.5Q112.98 30.06 112.98 30.75Q112.98 32.62 110.49 35.37Q107.99 38.1 102.09 41.45Q101.7 41.63 101.59 41.92Q101.56 42.02 101.56 42.13Q101.56 42.27 101.63 42.37Q101.76 42.56 102.18 42.56Q102.32 42.56 102.71 42.46Q104.34 41.84 106.35 41.48Q108.37 41.12 110.34 41.12Q112.21 41.12 113.79 41.53Q115.37 41.93 116.34 42.82Q116.59 43.05 116.77 43.33Q117.3 44.11 117.3 45.25Q117.3 46.3 116.7 47.72Q116.1 49.14 114.75 50.95Q112.64 53.84 109.52 56.53Q106.4 59.21 102.34 61.25Q98.29 63.29 93.34 64.35Q93.45 62.33 93.82 59.96Q94.21 57.59 94.93 54.8Q96.8 54.08 98.93 53.58Q101.08 53.07 103.42 52.92Q104.49 52.87 104.93 52.71Q105.38 52.55 105.39 52.36Q105.39 52.35 105.39 52.35Q105.39 52.33 105.39 52.32Q105.34 52.16 104.72 52.16Q102.18 52.25 99.73 52.78Q97.28 53.31 95.12 54.13Q96.27 49.85 98.31 44.7Q100.35 39.54 103.42 33.34Q103.57 32.95 103.57 32.72Q103.57 32.42 103.44 32.2Q103.36 32.06 103.23 31.96Q103.02 31.77 102.78 31.7Q102.63 31.66 102.47 31.66Q102.15 31.66 101.91 31.8Q101.64 31.96 101.46 32.29Q98.01 38.67 95.96 44.37Q93.92 50.05 93.02 54.94Q90.37 56.1 88.4 57.52Q86.43 58.92 85.33 60.32Q84.23 61.71 84.23 62.86Q84.23 63.18 84.32 63.46Q84.58 64.21 85.49 64.72Q86.77 65.45 89.56 65.45Q90.8 65.45 92.29 65.31Q92.53 70.21 93.89 73.66Q95.27 77.12 97.3 78.94Q99.11 80.55 101.05 80.74ZM50.69 69.57Q50.95 69.73 51.3 69.73Q51.52 69.73 51.72 69.66Q52.04 69.56 52.31 69.29Q53.22 68.19 53.98 65.29Q54.76 62.38 55.28 58.73Q56 60.18 56.89 61.48Q57.78 62.77 58.83 63.57Q59.81 64.33 60.82 64.39Q60.91 64.39 60.99 64.39Q61.86 64.39 62.77 63.77Q63.68 63.15 64.6 61.8Q64.83 61.46 65.29 60.63Q65.75 59.79 66.23 58.83Q66.25 58.79 66.26 58.76Q66.58 60.34 67.21 61.35Q68.26 63.03 69.62 63.32Q69.91 63.39 70.21 63.39Q71.89 63.39 73.67 61.71Q75.45 60.04 76.69 56.95Q76.88 56.58 76.88 56.24Q76.88 55.99 76.76 55.9Q76.69 55.85 76.6 55.85Q76.57 55.85 76.54 55.85Q76.14 55.9 75.82 56.62Q74.43 59.55 72.99 60.93Q71.56 62.29 70.4 62.29Q70.04 62.29 69.71 62.17Q68.84 61.88 68.24 60.77Q67.42 59.26 67.42 56.58Q67.42 55.9 67.49 55.21Q67.57 54.5 67.67 53.74Q68.05 51 68.89 49.87Q69.73 48.75 70.46 48.75Q70.55 48.75 70.64 48.77Q70.9 48.84 71.11 49.11Q71.41 49.46 71.41 50.1Q71.41 51.15 70.54 52.52Q69.68 53.88 68.72 54.56Q67.96 55.04 67.96 55.42Q67.96 55.48 67.99 55.51Q68.04 55.57 68.15 55.57Q68.43 55.57 68.63 55.46Q69.54 55.14 70.47 54.11Q70.55 54.02 70.63 53.93Q71.46 52.97 72.07 51.81Q72.75 50.53 72.75 49.37Q72.75 48.34 72.25 47.72Q72.17 47.62 72.07 47.53Q71.76 47.22 71.37 47.05Q70.95 46.87 70.46 46.87Q69.5 46.87 68.43 47.7Q67.37 48.5 66.65 50.26Q65.93 52.01 65.93 54.89Q65.93 56.13 66.03 57.19Q65.92 57.35 65.79 57.59Q65.41 58.21 64.83 59.46Q64.26 60.7 63.44 61.71Q62.24 63.11 61.09 63.11Q61 63.11 60.9 63.1Q59.89 63.02 58.95 62.1Q57.92 61.09 57.1 59.55Q56.29 58.01 55.67 56.43L56.63 55.42L58.45 53.4Q58.74 53.12 59.68 52.34Q60.61 51.54 61.74 50.58Q62.86 49.62 63.67 48.75Q64.49 47.88 64.49 47.45Q64.49 47.34 64.44 47.26Q64.32 47.07 63.92 47.07Q63.2 47.03 62.34 47.77Q61.47 48.5 60.67 49.39Q59.89 50.29 59.41 50.77Q58.93 51.25 58.93 51.59Q58.93 51.77 59 51.87Q59.06 51.94 59.08 52.03Q59.08 52.05 59.08 52.07L59.08 52.11Q58.4 52.92 57.49 53.67Q56.58 54.41 55.72 55.18Q55.95 53.03 56.04 50.85Q56.15 48.66 56.15 46.69Q56.15 43.8 55.88 41.55Q55.62 39.29 55.09 38.24Q54.94 37.89 54.7 37.82Q54.64 37.8 54.57 37.8Q54.5 37.8 54.45 37.83Q54.27 37.93 54.27 38.33Q54.27 38.72 54.57 39.43Q54.85 40.16 54.99 41.37Q55.14 42.56 55.14 44.1Q55.14 45.96 54.94 48.2Q54.76 50.43 54.46 52.69Q54.46 52.68 54.46 52.67Q54.45 52.59 54.3 52.52Q54.13 52.44 54.04 52.44Q53.84 52.39 53.48 52.92Q53.13 53.45 53.13 54.22Q53.13 54.47 53.18 54.71Q53.34 55.43 53.98 56.05Q53.86 56.64 53.6 58.01Q53.55 58.01 53.51 58.01Q53.35 58.01 53.23 58.07Q53.05 58.17 52.94 58.39Q52.12 59.74 51.59 59.74Q51.52 59.74 51.47 59.72Q51.13 59.62 50.98 58.91Q50.81 58.07 50.81 57.06Q50.81 55.66 51.05 54.68Q51.3 53.7 51.3 52.44Q51.3 52.11 51.13 51.63Q51.06 51.44 50.93 51.32Q50.73 51.15 50.39 51.15Q50.15 51.15 49.85 51.29Q49.57 51.43 49.33 51.91Q48.71 53.4 47.81 55.42Q46.94 57.43 45.82 58.97Q44.33 61.09 43.37 61.09Q43.24 61.09 43.13 61.04Q42.61 60.8 42.61 59.45Q42.61 58.55 42.87 57.13Q43.14 55.71 43.55 54.25Q43.96 52.78 44.44 51.73Q45.01 50.33 45.94 49.25Q46.86 48.2 47.8 48.18Q47.82 48.18 47.84 48.18Q47.89 48.18 47.94 48.18Q48.47 48.22 48.97 48.66Q49.53 49.14 50.01 50.24Q50.13 50.5 50.3 50.53Q50.32 50.53 50.33 50.53Q50.35 50.53 50.38 50.53Q50.6 50.5 50.77 50.12Q50.97 49.71 50.97 49.09Q50.97 48.65 50.85 48.25Q50.68 47.69 50.26 47.19Q49.8 46.63 49.22 46.44Q48.93 46.35 48.61 46.35Q47.56 46.35 46.44 47.33Q45.34 48.32 44.36 49.87Q43.37 51.43 42.6 53.29Q41.84 55.14 41.38 56.87Q40.94 58.59 40.94 59.88Q40.94 60.89 41.31 61.64Q41.49 61.98 41.77 62.17Q42.1 62.38 42.56 62.38Q43.43 62.38 44.44 61.48Q45.45 60.56 46.35 59.24Q47.26 57.91 47.93 56.7Q48.61 55.46 48.85 54.89Q48.9 55.37 48.9 56.65Q48.9 57.91 49.71 59.5Q49.92 59.92 50.27 60.16Q50.7 60.46 51.34 60.46Q52.21 60.46 53.08 59.77Q53.19 59.67 53.29 59.58Q53.06 60.74 52.76 62.05Q52.31 64.07 51.71 65.91Q51.11 67.76 50.43 68.77Q50.3 68.97 50.34 69.15Q50.37 69.3 50.51 69.43Q50.6 69.51 50.69 69.57ZM129.7 69.57Q129.96 69.73 130.31 69.73Q130.53 69.73 130.73 69.66Q131.05 69.56 131.31 69.29Q132.23 68.19 132.99 65.29Q133.76 62.38 134.29 58.73Q135 60.18 135.9 61.48Q136.79 62.77 137.84 63.57Q138.82 64.33 139.83 64.39Q139.91 64.39 140 64.39Q140.87 64.39 141.78 63.77Q142.69 63.15 143.61 61.8Q143.84 61.46 144.3 60.63Q144.75 59.79 145.24 58.83Q145.25 58.79 145.27 58.76Q145.59 60.34 146.22 61.35Q147.27 63.03 148.63 63.32Q148.92 63.39 149.22 63.39Q150.89 63.39 152.68 61.71Q154.46 60.04 155.7 56.95Q155.89 56.58 155.89 56.24Q155.89 55.99 155.77 55.9Q155.7 55.85 155.61 55.85Q155.58 55.85 155.55 55.85Q155.15 55.9 154.83 56.62Q153.44 59.55 152 60.93Q150.57 62.29 149.41 62.29Q149.05 62.29 148.72 62.17Q147.85 61.88 147.25 60.77Q146.43 59.26 146.43 56.58Q146.43 55.9 146.5 55.21Q146.58 54.5 146.68 53.74Q147.06 51 147.89 49.87Q148.74 48.75 149.47 48.75Q149.56 48.75 149.65 48.77Q149.91 48.84 150.12 49.11Q150.41 49.46 150.41 50.1Q150.41 51.15 149.55 52.52Q148.69 53.88 147.73 54.56Q146.97 55.04 146.97 55.42Q146.97 55.48 147 55.51Q147.04 55.57 147.16 55.57Q147.44 55.57 147.64 55.46Q148.55 55.14 149.48 54.11Q149.56 54.02 149.64 53.93Q150.47 52.97 151.08 51.81Q151.76 50.53 151.76 49.37Q151.76 48.34 151.26 47.72Q151.18 47.62 151.08 47.53Q150.76 47.22 150.38 47.05Q149.96 46.87 149.47 46.87Q148.5 46.87 147.44 47.7Q146.38 48.5 145.66 50.26Q144.94 52.01 144.94 54.89Q144.94 56.13 145.04 57.19Q144.92 57.35 144.8 57.59Q144.42 58.21 143.84 59.46Q143.27 60.7 142.45 61.71Q141.25 63.11 140.1 63.11Q140 63.11 139.91 63.1Q138.9 63.02 137.96 62.1Q136.93 61.09 136.11 59.55Q135.3 58.01 134.68 56.43L135.64 55.42L137.46 53.4Q137.75 53.12 138.69 52.34Q139.62 51.54 140.75 50.58Q141.87 49.62 142.68 48.75Q143.5 47.88 143.5 47.45Q143.5 47.34 143.45 47.26Q143.33 47.07 142.93 47.07Q142.21 47.03 141.35 47.77Q140.48 48.5 139.68 49.39Q138.9 50.29 138.42 50.77Q137.94 51.25 137.94 51.59Q137.94 51.77 138 51.87Q138.07 51.94 138.09 52.03Q138.09 52.05 138.09 52.07L138.09 52.11Q137.41 52.92 136.49 53.67Q135.59 54.41 134.72 55.18Q134.96 53.03 135.05 50.85Q135.16 48.66 135.16 46.69Q135.16 43.8 134.89 41.55Q134.63 39.29 134.1 38.24Q133.95 37.89 133.71 37.82Q133.64 37.8 133.58 37.8Q133.51 37.8 133.45 37.83Q133.28 37.93 133.28 38.33Q133.28 38.72 133.58 39.43Q133.86 40.16 134 41.37Q134.15 42.56 134.15 44.1Q134.15 45.96 133.95 48.2Q133.76 50.43 133.47 52.69Q133.47 52.68 133.47 52.67Q133.46 52.59 133.31 52.52Q133.14 52.44 133.05 52.44Q132.85 52.39 132.49 52.92Q132.13 53.45 132.13 54.22Q132.13 54.47 132.19 54.71Q132.35 55.43 132.99 56.05Q132.87 56.64 132.6 58.01Q132.56 58.01 132.52 58.01Q132.36 58.01 132.24 58.07Q132.06 58.17 131.94 58.39Q131.12 59.74 130.6 59.74Q130.53 59.74 130.47 59.72Q130.14 59.62 129.99 58.91Q129.82 58.07 129.82 57.06Q129.82 55.66 130.06 54.68Q130.3 53.7 130.3 52.44Q130.3 52.11 130.14 51.63Q130.07 51.44 129.94 51.32Q129.74 51.15 129.4 51.15Q129.16 51.15 128.86 51.29Q128.58 51.43 128.33 51.91Q127.71 53.4 126.82 55.42Q125.94 57.43 124.83 58.97Q123.34 61.09 122.38 61.09Q122.25 61.09 122.14 61.04Q121.62 60.8 121.62 59.45Q121.62 58.55 121.88 57.13Q122.15 55.71 122.56 54.25Q122.97 52.78 123.45 51.73Q124.02 50.33 124.95 49.25Q125.87 48.2 126.81 48.18Q126.83 48.18 126.85 48.18Q126.9 48.18 126.95 48.18Q127.48 48.22 127.98 48.66Q128.53 49.14 129.01 50.24Q129.14 50.5 129.31 50.53Q129.32 50.53 129.34 50.53Q129.36 50.53 129.38 50.53Q129.6 50.5 129.78 50.12Q129.98 49.71 129.98 49.09Q129.98 48.65 129.86 48.25Q129.69 47.69 129.27 47.19Q128.81 46.63 128.23 46.44Q127.94 46.35 127.62 46.35Q126.57 46.35 125.45 47.33Q124.35 48.32 123.37 49.87Q122.38 51.43 121.61 53.29Q120.85 55.14 120.39 56.87Q119.94 58.59 119.94 59.88Q119.94 60.89 120.32 61.64Q120.5 61.98 120.78 62.17Q121.11 62.38 121.57 62.38Q122.44 62.38 123.45 61.48Q124.46 60.56 125.36 59.24Q126.27 57.91 126.94 56.7Q127.62 55.46 127.85 54.89Q127.91 55.37 127.91 56.65Q127.91 57.91 128.72 59.5Q128.93 59.92 129.27 60.16Q129.71 60.46 130.35 60.46Q131.22 60.46 132.08 59.77Q132.2 59.67 132.3 59.58Q132.07 60.74 131.77 62.05Q131.31 64.07 130.72 65.91Q130.12 67.76 129.44 68.77Q129.31 68.97 129.35 69.15Q129.38 69.3 129.52 69.43Q129.61 69.51 129.7 69.57ZM90.89 64.76Q90.27 64.83 89.75 64.83Q87.98 64.83 87.11 64.23Q86.54 63.84 86.34 63.3Q86.24 63.03 86.24 62.72Q86.24 61.23 88.01 59.29Q89.79 57.34 92.86 55.76Q92.49 58.16 92.34 60.37Q92.19 62.58 92.24 64.59Q91.53 64.69 90.89 64.76Z" fill="#1F1711" fill-opacity="1.000000" fill-rule="evenodd"/>
</svg>
