<svg width="277.000000" height="93.770508" viewBox="0 0 277 93.7705" fill="none" xmlns="http://www.w3.org/2000/svg" xmlns:xlink="http://www.w3.org/1999/xlink">
	<desc>
			Created with Pixso.
	</desc>
	<defs/>
	<rect id="Color=ЧБ" width="241.000000" height="82.999847" transform="translate(0.000000 10.770508)" fill="#FFFFFF" fill-opacity="0"/>
	<path id="&amp;" d="M155.7 89.01Q156.07 89.05 156.44 89.05Q157.76 89.05 158.72 88.77Q161.86 88 163.96 86.09Q164.99 85.16 165.76 83.95Q168.14 80.3 169.04 75.3Q169.95 70.3 169.95 65.35Q169.95 63.72 169.86 62.11Q169.77 60.49 169.67 58.95Q171.97 57.44 174.02 55.63Q176.46 53.47 178.53 50.9Q179.11 50.19 179.64 49.46Q182.68 45.3 184.53 40.28Q185.21 38.37 185.86 35.76Q186.53 33.14 186.53 30.67Q186.53 28.58 185.95 26.86Q185.17 24.52 183.56 23.58Q183.46 23.52 183.35 23.46Q182.14 22.84 180.86 22.64Q180.28 22.55 179.67 22.55Q178.35 22.55 177.21 22.86Q176.54 23.02 175.88 23.24Q173.1 24.18 170.67 26.16Q167.67 28.58 165.49 31.32Q164.9 27.41 164.28 23.37Q163.67 19.32 163.67 15.41Q164.81 14.09 166.23 12.32Q167.67 10.55 168.77 8.46Q169.86 6.37 169.86 4.27Q169.86 3.04 169.49 2.18Q169.09 1.23 168.42 0.62Q168.15 0.37 167.84 0.22Q167.38 -0.01 166.81 -0.01Q166.27 -0.01 165.8 0.18Q165.05 0.48 164.49 1.27Q163.58 2.55 163 3.81Q162.25 5.51 162 7.86Q161.76 10.18 161.76 12.46Q161.76 13.41 161.81 14.37Q161.86 15.32 161.86 16.18Q157.58 20.86 153.37 25Q149.18 29.14 145.37 33.67Q141.58 38.18 138.44 44.18Q135.99 42.5 134.52 40.19Q133.77 38.99 133.27 37.62Q132.9 36.46 132.72 35.37Q132.53 34.28 132.53 33.23Q132.53 31.01 133.19 29.01Q133.69 27.49 134.58 26.09Q135.64 24.41 136.99 22.99Q138.23 21.69 139.72 20.62Q142.81 18.37 146.04 17.6Q147.39 17.32 148.62 17.32L151.18 17.32Q151.45 17.32 151.52 17.21Q151.57 17.11 151.49 16.95Q151.48 16.95 151.48 16.94Q151.38 16.55 149.86 16.55Q148.62 16.55 147.23 16.76Q145.86 16.95 145.48 17.04Q142.04 17.81 138.51 20.3Q136.86 21.45 135.46 22.85Q133.87 24.44 132.6 26.34Q131.42 28.12 130.83 30.07Q130.23 32.03 130.23 34.18Q130.23 35.23 130.41 36.39Q130.62 37.53 131 38.67Q131.63 40.5 132.71 42.02Q133.08 42.55 133.51 43.04Q134.21 43.84 135 44.54Q136.1 45.51 137.37 46.28Q136.44 48.37 135.62 51Q135.27 52.14 135.07 53.3Q134.81 54.83 134.81 56.39Q134.81 57.32 134.9 58.35Q134.95 58.88 135.08 59.39Q135.19 59.84 135.37 60.28Q136.19 62.66 137.84 64.11Q138.89 65.04 140.28 65.58Q142.88 66.58 145.56 66.85Q146.56 66.95 147.58 66.95Q149.67 66.95 151.53 66.72Q153.39 66.49 154.81 66.09Q157.86 65.35 160.67 64.21Q161.67 63.8 162.64 63.34Q164.42 62.51 166.14 61.53Q166.25 64.49 166.04 68.63Q166.01 69.42 165.95 70.21Q165.7 73.55 165.04 76.86Q164.25 80.95 162.39 84Q161.24 85.89 159.56 86.9Q158.53 87.52 157.3 87.81Q156.9 87.91 156.46 87.95Q156.04 88 155.67 88Q155.18 88 154.71 87.92Q153.6 87.74 152.55 87.14Q151.09 86.3 150.14 84.49Q150 84.14 149.82 84.11Q149.75 84.1 149.67 84.14Q149.52 84.23 149.48 84.36Q149.44 84.46 149.49 84.58Q150.09 86.26 151.28 87.28Q151.76 87.69 152.35 88Q153.99 88.86 155.7 89.01ZM165.44 11.46Q164.35 13.32 163.67 14.09Q163.76 12.09 164.09 9.27Q164.44 6.46 165.3 4.65Q165.49 4.09 166.09 3.27Q166.72 2.46 167.3 2.46Q167.5 2.46 167.65 2.55Q167.77 2.63 167.86 2.76Q168.04 3.04 168.14 3.32Q168.25 3.51 168.25 4.09Q168.25 5.41 167.39 7.51Q166.53 9.6 165.44 11.46ZM146.96 46.11Q145.95 46.28 144.9 46.28Q143.43 46.28 142.06 45.89Q141.66 45.77 141.28 45.62Q141.95 44.09 142.6 42.67Q143.28 41.23 144.04 39.9Q145.86 36.46 148 33.28Q150.14 30.09 152.62 27.23Q154.81 24.67 157.18 22.3L157.18 22.3Q159.58 19.9 161.86 17.41Q162.14 21.51 162.56 25.58Q163 29.62 163.49 33.72Q162.53 34.86 160.67 36.9Q158.81 38.95 156.32 41.14Q154.75 42.53 152.99 43.65Q152 44.27 150.95 44.81Q149.01 45.79 146.96 46.11ZM176.69 51.42Q173.5 54.9 169.39 57.53Q169 51.32 167.81 45.04Q166.63 38.76 165.67 32.46Q168.81 29.32 171.95 27.76Q175.09 26.18 177.67 26.18Q179.48 26.18 180.87 26.95Q181.68 27.39 182.35 28.09Q184.16 30 184.16 33.81Q184.16 35.42 183.77 37.37Q183.39 39.32 182.53 41.72Q180.63 46.95 177.23 50.81Q176.96 51.12 176.69 51.42ZM154.28 63.95Q152.72 64.18 151.09 64.18Q150.81 64.18 150.54 64.17Q147.58 64.07 144.67 62.86Q143.64 62.43 142.8 61.76Q141.05 60.36 140.14 57.9Q139.58 55.9 139.58 53.9Q139.58 53.33 139.62 52.75Q139.69 51.71 139.9 50.67Q140.23 49.04 140.62 47.72Q142.53 48.28 144.44 48.28Q145.61 48.28 146.76 48.09Q148.76 47.76 150.67 46.86Q152.08 46.18 153.39 45.35Q154.87 44.41 156.23 43.28Q158.81 41.14 160.72 38.81Q162.63 36.46 163.67 34.67Q164.44 41.04 165.14 47.39Q165.86 53.72 165.95 60Q161.86 62.28 157.09 63.44Q155.86 63.72 154.28 63.95Z" fill="#D0D0D0" fill-opacity="1.000000" fill-rule="evenodd"/>
	<path id="Wake Bake" d="M44.63 68.19Q44.86 68.24 45.1 68.24Q46.4 68.24 47.96 66.91Q49.51 65.6 51.12 63.29Q52.73 60.98 54.21 57.98Q55.7 54.98 56.92 51.59Q58.15 48.18 58.92 44.72Q59.21 46.3 59.73 48.39Q60.27 50.47 61.03 52.97Q61.9 55.57 63.1 57.68Q64.3 59.79 65.71 61.07Q67.1 62.31 68.51 62.33Q68.54 62.33 68.57 62.33Q68.67 62.33 68.77 62.32Q70.44 62.2 71.96 59.99Q73.56 57.63 74.62 52.11Q75.1 49.57 75.26 47.07Q75.44 44.58 75.44 42.08L75.44 40.32Q75.44 39.43 75.39 38.58Q76.35 40.21 77.09 40.8Q77.84 41.4 78.94 41.93Q79.13 41.98 79.56 41.79Q79.93 41.63 79.98 41.4Q80 41.35 80 41.31Q80 41.2 79.94 41.15Q79.92 41.13 79.9 41.12Q79.22 40.87 78.53 39.75Q77.84 38.62 77.21 37.25Q76.58 35.88 76.2 34.92Q75.87 34.07 75.41 32.89Q74.96 31.71 74.43 31.04Q74.04 30.46 73.66 30.46Q73.59 30.46 73.53 30.48Q73.29 30.55 73.15 30.94Q72.99 31.42 72.99 32.1Q72.99 32.62 73.08 33.25Q73.17 33.87 73.37 34.44Q73.9 35.84 74.11 38.05Q74.33 40.25 74.33 42.8Q74.33 45.87 74 49.07Q73.66 52.25 72.99 54.97Q72.32 57.68 71.33 59.33Q70.49 60.74 69.42 60.95Q69.24 60.98 69.05 60.98Q67.81 60.98 66.32 59.14Q64.83 57.29 63.05 53.03Q62.18 50.86 61.54 48.32Q60.89 45.77 60.37 43.11Q59.84 40.44 59.31 38.05Q59.08 36.91 58.49 36.67Q58.33 36.61 58.15 36.61Q58.13 36.61 58.11 36.61Q57.56 36.64 57.05 37.43Q56.52 38.24 56.52 39.68Q56.52 41.03 56.62 41.89Q56.71 42.75 57.19 43.57Q56.77 45.96 56.02 48.84Q55.28 51.73 54.37 54.52Q53.45 57.29 52.35 59.36Q51.53 60.94 50.52 62.53Q49.51 64.11 48.48 65.17Q47.45 66.22 46.49 66.22Q46.39 66.22 46.3 66.21Q45.55 66.09 44.96 64.99Q44.29 63.77 43.9 60.75Q43.85 60.27 43.83 59.72Q43.81 59.17 43.81 58.55Q43.81 56.38 44.07 53.55Q44.33 50.72 44.64 47.58Q44.96 44.43 45.21 41.31Q45.48 38.19 45.48 35.4Q45.48 31.71 44.8 29.12Q44.27 27.07 42.99 26.34Q42.66 26.15 42.27 26.05Q42.12 25.99 41.98 25.97Q41.84 25.95 41.64 25.95Q41.31 25.95 41.01 26.03Q40.42 26.18 39.91 26.65Q39.79 26.75 39.68 26.86Q39.08 27.49 38.71 28.35Q38.29 29.36 38.29 30.27Q38.29 30.46 38.31 30.63Q38.33 30.8 38.38 30.98Q38.4 31.11 38.44 31.12Q38.52 31.14 38.69 30.82Q38.96 30.32 39.41 29.48Q39.87 28.64 40.47 27.95Q41.05 27.27 41.65 27.25Q41.67 27.25 41.69 27.25Q41.85 27.25 41.99 27.29Q42.76 27.55 43.08 29.12Q43.47 30.98 43.47 34.02Q43.47 36.46 43.27 39.43Q43.08 42.41 42.81 45.52Q42.55 48.61 42.26 51.54Q41.98 54.46 41.78 56.88Q41.59 59.31 41.59 60.89L41.59 61.64Q41.59 61.99 41.64 62.24Q42.03 65.4 42.94 66.82Q43.68 67.97 44.63 68.19ZM138.05 80.74Q138.3 80.77 138.56 80.77Q139.61 80.77 140.67 80.33Q140.9 80.24 140.97 80.07Q141.01 79.99 141.01 79.9Q141.01 79.87 141 79.83Q140.97 79.54 140.67 79.28Q140.38 79.03 140.07 78.99Q140.01 78.98 139.95 78.98Q139.66 78.98 139.47 79.13Q139.42 79.17 139.37 79.23Q139.13 79.46 138.46 79.46Q137.55 79.46 136.16 78.82Q134.76 78.18 133.37 76.62Q131.98 75.06 131.09 72.27Q130.2 69.48 130.3 65.21Q135.15 64.55 139.44 62.62Q143.74 60.7 147.22 58.07Q150.7 55.42 153.01 52.59Q154.59 50.62 155.47 48.77Q156.36 46.92 156.36 45.34Q156.36 44.44 156.03 43.67Q155.58 42.61 154.51 41.81Q152.67 40.44 148.54 40.44Q147.43 40.44 146.13 40.57Q144.84 40.69 143.35 40.92Q147.77 37.85 149.64 35.31Q151.52 32.77 151.52 30.84Q151.52 29.91 151.15 29.17Q150.69 28.26 149.69 27.63Q147.86 26.47 144.95 26.47Q142.82 26.47 140.3 27.15Q137.78 27.82 135.2 29.21Q133.18 30.27 131.3 31.73Q129.43 33.2 127.92 34.85Q126.41 36.5 125.52 38.14Q124.64 39.77 124.64 41.21Q124.64 42.18 124.99 42.66Q125.35 43.14 125.69 43.14Q125.88 43.14 126.01 43.06Q126.41 42.82 126.41 41.93Q126.41 41.84 126.38 41.72Q126.36 41.6 126.36 41.5Q126.22 40.49 126.79 39.04Q127.37 37.57 128.54 35.92Q129.72 34.25 131.42 32.7Q133.13 31.14 135.24 29.98Q137.78 28.59 140.19 27.97Q142.59 27.34 144.51 27.34Q146.96 27.34 148.47 28.23Q149.34 28.74 149.71 29.5Q149.98 30.06 149.98 30.75Q149.98 32.62 147.49 35.37Q144.99 38.1 139.09 41.45Q138.7 41.63 138.59 41.92Q138.56 42.02 138.56 42.13Q138.56 42.27 138.63 42.37Q138.76 42.56 139.18 42.56Q139.32 42.56 139.71 42.46Q141.34 41.84 143.35 41.48Q145.37 41.12 147.34 41.12Q149.21 41.12 150.79 41.53Q152.37 41.93 153.34 42.82Q153.59 43.05 153.77 43.33Q154.3 44.11 154.3 45.25Q154.3 46.3 153.7 47.72Q153.1 49.14 151.75 50.95Q149.64 53.84 146.52 56.53Q143.4 59.21 139.34 61.25Q135.29 63.29 130.34 64.35Q130.45 62.33 130.82 59.96Q131.21 57.59 131.92 54.8Q133.8 54.08 135.93 53.58Q138.08 53.07 140.42 52.92Q141.49 52.87 141.93 52.71Q142.38 52.55 142.39 52.36Q142.39 52.35 142.39 52.35Q142.39 52.33 142.39 52.32Q142.34 52.16 141.72 52.16Q139.18 52.25 136.73 52.78Q134.28 53.31 132.12 54.13Q133.27 49.85 135.31 44.7Q137.35 39.54 140.42 33.34Q140.57 32.95 140.57 32.72Q140.57 32.42 140.44 32.2Q140.36 32.06 140.23 31.96Q140.02 31.77 139.78 31.7Q139.63 31.66 139.47 31.66Q139.15 31.66 138.91 31.8Q138.64 31.96 138.46 32.29Q135.01 38.67 132.96 44.37Q130.92 50.05 130.02 54.94Q127.37 56.1 125.4 57.52Q123.43 58.92 122.33 60.32Q121.23 61.71 121.23 62.86Q121.23 63.18 121.32 63.46Q121.58 64.21 122.49 64.72Q123.77 65.45 126.56 65.45Q127.8 65.45 129.29 65.31Q129.53 70.21 130.89 73.66Q132.27 77.12 134.3 78.94Q136.11 80.55 138.05 80.74ZM87.69 69.57Q87.95 69.73 88.3 69.73Q88.52 69.73 88.72 69.66Q89.04 69.56 89.31 69.29Q90.22 68.19 90.98 65.29Q91.76 62.38 92.28 58.73Q93 60.18 93.89 61.48Q94.78 62.77 95.83 63.57Q96.81 64.33 97.82 64.39Q97.91 64.39 97.99 64.39Q98.86 64.39 99.77 63.77Q100.69 63.15 101.6 61.8Q101.83 61.46 102.29 60.63Q102.75 59.79 103.23 58.83Q103.25 58.79 103.26 58.76Q103.58 60.34 104.21 61.35Q105.26 63.03 106.62 63.32Q106.91 63.39 107.21 63.39Q108.89 63.39 110.67 61.71Q112.45 60.04 113.69 56.95Q113.88 56.58 113.88 56.24Q113.88 55.99 113.76 55.9Q113.7 55.85 113.6 55.85Q113.57 55.85 113.54 55.85Q113.14 55.9 112.82 56.62Q111.43 59.55 109.99 60.93Q108.56 62.29 107.4 62.29Q107.04 62.29 106.71 62.17Q105.84 61.88 105.24 60.77Q104.42 59.26 104.42 56.58Q104.42 55.9 104.49 55.21Q104.57 54.5 104.67 53.74Q105.05 51 105.89 49.87Q106.73 48.75 107.46 48.75Q107.55 48.75 107.64 48.77Q107.9 48.84 108.11 49.11Q108.41 49.46 108.41 50.1Q108.41 51.15 107.54 52.52Q106.68 53.88 105.72 54.56Q104.96 55.04 104.96 55.42Q104.96 55.48 104.99 55.51Q105.04 55.57 105.15 55.57Q105.43 55.57 105.63 55.46Q106.54 55.14 107.47 54.11Q107.55 54.02 107.63 53.93Q108.46 52.97 109.07 51.81Q109.75 50.53 109.75 49.37Q109.75 48.34 109.25 47.72Q109.17 47.62 109.07 47.53Q108.76 47.22 108.37 47.05Q107.95 46.87 107.46 46.87Q106.5 46.87 105.43 47.7Q104.38 48.5 103.65 50.26Q102.93 52.01 102.93 54.89Q102.93 56.13 103.03 57.19Q102.92 57.35 102.79 57.59Q102.41 58.21 101.83 59.46Q101.26 60.7 100.44 61.71Q99.24 63.11 98.09 63.11Q98 63.11 97.9 63.1Q96.89 63.02 95.95 62.1Q94.92 61.09 94.1 59.55Q93.29 58.01 92.67 56.43L93.63 55.42L95.45 53.4Q95.74 53.12 96.68 52.34Q97.61 51.54 98.74 50.58Q99.86 49.62 100.67 48.75Q101.49 47.88 101.49 47.45Q101.49 47.34 101.44 47.26Q101.32 47.07 100.92 47.07Q100.2 47.03 99.34 47.77Q98.47 48.5 97.67 49.39Q96.89 50.29 96.41 50.77Q95.93 51.25 95.93 51.59Q95.93 51.77 96 51.87Q96.06 51.94 96.08 52.03Q96.08 52.05 96.08 52.07L96.08 52.11Q95.4 52.92 94.49 53.67Q93.58 54.41 92.72 55.18Q92.95 53.03 93.04 50.85Q93.15 48.66 93.15 46.69Q93.15 43.8 92.88 41.55Q92.62 39.29 92.09 38.24Q91.94 37.89 91.7 37.82Q91.64 37.8 91.57 37.8Q91.5 37.8 91.45 37.83Q91.27 37.93 91.27 38.33Q91.27 38.72 91.57 39.43Q91.85 40.16 91.99 41.37Q92.14 42.56 92.14 44.1Q92.14 45.96 91.94 48.2Q91.76 50.43 91.46 52.69Q91.46 52.68 91.46 52.67Q91.45 52.59 91.3 52.52Q91.13 52.44 91.04 52.44Q90.84 52.39 90.48 52.92Q90.13 53.45 90.13 54.22Q90.13 54.47 90.18 54.71Q90.34 55.43 90.98 56.05Q90.86 56.64 90.6 58.01Q90.55 58.01 90.51 58.01Q90.35 58.01 90.23 58.07Q90.05 58.17 89.94 58.39Q89.12 59.74 88.59 59.74Q88.52 59.74 88.47 59.72Q88.13 59.62 87.98 58.91Q87.81 58.07 87.81 57.06Q87.81 55.66 88.05 54.68Q88.3 53.7 88.3 52.44Q88.3 52.11 88.13 51.63Q88.06 51.44 87.93 51.32Q87.73 51.15 87.39 51.15Q87.15 51.15 86.85 51.29Q86.57 51.43 86.33 51.91Q85.71 53.4 84.81 55.42Q83.94 57.43 82.82 58.97Q81.33 61.09 80.37 61.09Q80.24 61.09 80.13 61.04Q79.61 60.8 79.61 59.45Q79.61 58.55 79.87 57.13Q80.14 55.71 80.55 54.25Q80.96 52.78 81.44 51.73Q82.01 50.33 82.94 49.25Q83.86 48.2 84.8 48.18Q84.82 48.18 84.84 48.18Q84.89 48.18 84.94 48.18Q85.47 48.22 85.97 48.66Q86.53 49.14 87.01 50.24Q87.13 50.5 87.3 50.53Q87.32 50.53 87.33 50.53Q87.35 50.53 87.38 50.53Q87.6 50.5 87.77 50.12Q87.97 49.71 87.97 49.09Q87.97 48.65 87.85 48.25Q87.68 47.69 87.26 47.19Q86.8 46.63 86.22 46.44Q85.93 46.35 85.61 46.35Q84.56 46.35 83.44 47.33Q82.34 48.32 81.36 49.87Q80.37 51.43 79.6 53.29Q78.84 55.14 78.38 56.87Q77.94 58.59 77.94 59.88Q77.94 60.89 78.31 61.64Q78.49 61.98 78.77 62.17Q79.1 62.38 79.56 62.38Q80.43 62.38 81.44 61.48Q82.45 60.56 83.35 59.24Q84.26 57.91 84.93 56.7Q85.61 55.46 85.85 54.89Q85.9 55.37 85.9 56.65Q85.9 57.91 86.71 59.5Q86.92 59.92 87.27 60.16Q87.7 60.46 88.34 60.46Q89.21 60.46 90.08 59.77Q90.19 59.67 90.29 59.58Q90.06 60.74 89.76 62.05Q89.31 64.07 88.71 65.91Q88.11 67.76 87.43 68.77Q87.3 68.97 87.34 69.15Q87.37 69.3 87.51 69.43Q87.6 69.51 87.69 69.57ZM166.7 69.57Q166.96 69.73 167.31 69.73Q167.53 69.73 167.73 69.66Q168.05 69.56 168.31 69.29Q169.23 68.19 169.99 65.29Q170.76 62.38 171.29 58.73Q172.01 60.18 172.9 61.48Q173.79 62.77 174.84 63.57Q175.82 64.33 176.83 64.39Q176.91 64.39 177 64.39Q177.87 64.39 178.78 63.77Q179.69 63.15 180.61 61.8Q180.84 61.46 181.3 60.63Q181.76 59.79 182.24 58.83Q182.25 58.79 182.27 58.76Q182.59 60.34 183.22 61.35Q184.27 63.03 185.63 63.32Q185.92 63.39 186.22 63.39Q187.89 63.39 189.68 61.71Q191.46 60.04 192.7 56.95Q192.89 56.58 192.89 56.24Q192.89 55.99 192.77 55.9Q192.7 55.85 192.61 55.85Q192.58 55.85 192.55 55.85Q192.15 55.9 191.83 56.62Q190.44 59.55 189 60.93Q187.57 62.29 186.41 62.29Q186.05 62.29 185.72 62.17Q184.85 61.88 184.25 60.77Q183.43 59.26 183.43 56.58Q183.43 55.9 183.5 55.21Q183.58 54.5 183.68 53.74Q184.06 51 184.89 49.87Q185.74 48.75 186.47 48.75Q186.56 48.75 186.65 48.77Q186.91 48.84 187.12 49.11Q187.41 49.46 187.41 50.1Q187.41 51.15 186.55 52.52Q185.69 53.88 184.73 54.56Q183.97 55.04 183.97 55.42Q183.97 55.48 184 55.51Q184.04 55.57 184.16 55.57Q184.44 55.57 184.64 55.46Q185.55 55.14 186.48 54.11Q186.56 54.02 186.64 53.93Q187.47 52.97 188.08 51.81Q188.76 50.53 188.76 49.37Q188.76 48.34 188.26 47.72Q188.18 47.62 188.08 47.53Q187.76 47.22 187.38 47.05Q186.96 46.87 186.47 46.87Q185.5 46.87 184.44 47.7Q183.38 48.5 182.66 50.26Q181.94 52.01 181.94 54.89Q181.94 56.13 182.04 57.19Q181.92 57.35 181.8 57.59Q181.42 58.21 180.84 59.46Q180.27 60.7 179.45 61.71Q178.25 63.11 177.1 63.11Q177 63.11 176.91 63.1Q175.9 63.02 174.96 62.1Q173.93 61.09 173.11 59.55Q172.3 58.01 171.68 56.43L172.64 55.42L174.46 53.4Q174.75 53.12 175.69 52.34Q176.62 51.54 177.75 50.58Q178.87 49.62 179.68 48.75Q180.5 47.88 180.5 47.45Q180.5 47.34 180.45 47.26Q180.33 47.07 179.93 47.07Q179.21 47.03 178.35 47.77Q177.48 48.5 176.68 49.39Q175.9 50.29 175.42 50.77Q174.94 51.25 174.94 51.59Q174.94 51.77 175.01 51.87Q175.07 51.94 175.09 52.03Q175.09 52.05 175.09 52.07L175.09 52.11Q174.41 52.92 173.49 53.67Q172.59 54.41 171.72 55.18Q171.96 53.03 172.05 50.85Q172.16 48.66 172.16 46.69Q172.16 43.8 171.89 41.55Q171.63 39.29 171.1 38.24Q170.95 37.89 170.71 37.82Q170.64 37.8 170.58 37.8Q170.51 37.8 170.45 37.83Q170.28 37.93 170.28 38.33Q170.28 38.72 170.58 39.43Q170.86 40.16 171 41.37Q171.15 42.56 171.15 44.1Q171.15 45.96 170.95 48.2Q170.76 50.43 170.47 52.69Q170.47 52.68 170.47 52.67Q170.46 52.59 170.31 52.52Q170.14 52.44 170.05 52.44Q169.85 52.39 169.49 52.92Q169.13 53.45 169.13 54.22Q169.13 54.47 169.19 54.71Q169.35 55.43 169.99 56.05Q169.87 56.64 169.6 58.01Q169.56 58.01 169.52 58.01Q169.36 58.01 169.24 58.07Q169.06 58.17 168.94 58.39Q168.12 59.74 167.6 59.74Q167.53 59.74 167.47 59.72Q167.14 59.62 166.99 58.91Q166.82 58.07 166.82 57.06Q166.82 55.66 167.06 54.68Q167.3 53.7 167.3 52.44Q167.3 52.11 167.14 51.63Q167.07 51.44 166.94 51.32Q166.74 51.15 166.4 51.15Q166.16 51.15 165.86 51.29Q165.58 51.43 165.33 51.91Q164.71 53.4 163.82 55.42Q162.94 57.43 161.83 58.97Q160.34 61.09 159.38 61.09Q159.25 61.09 159.14 61.04Q158.62 60.8 158.62 59.45Q158.62 58.55 158.88 57.13Q159.15 55.71 159.56 54.25Q159.97 52.78 160.45 51.73Q161.02 50.33 161.95 49.25Q162.87 48.2 163.81 48.18Q163.83 48.18 163.85 48.18Q163.9 48.18 163.95 48.18Q164.48 48.22 164.98 48.66Q165.53 49.14 166.01 50.24Q166.14 50.5 166.31 50.53Q166.32 50.53 166.34 50.53Q166.36 50.53 166.38 50.53Q166.6 50.5 166.78 50.12Q166.98 49.71 166.98 49.09Q166.98 48.65 166.86 48.25Q166.69 47.69 166.27 47.19Q165.81 46.63 165.23 46.44Q164.94 46.35 164.62 46.35Q163.57 46.35 162.45 47.33Q161.35 48.32 160.37 49.87Q159.38 51.43 158.61 53.29Q157.85 55.14 157.39 56.87Q156.94 58.59 156.94 59.88Q156.94 60.89 157.32 61.64Q157.5 61.98 157.78 62.17Q158.11 62.38 158.57 62.38Q159.44 62.38 160.45 61.48Q161.46 60.56 162.36 59.24Q163.27 57.91 163.94 56.7Q164.62 55.46 164.85 54.89Q164.91 55.37 164.91 56.65Q164.91 57.91 165.72 59.5Q165.93 59.92 166.27 60.16Q166.71 60.46 167.35 60.46Q168.22 60.46 169.08 59.77Q169.2 59.67 169.3 59.58Q169.07 60.74 168.77 62.05Q168.31 64.07 167.72 65.91Q167.12 67.76 166.44 68.77Q166.31 68.97 166.35 69.15Q166.38 69.3 166.52 69.43Q166.61 69.51 166.7 69.57ZM127.89 64.76Q127.27 64.83 126.75 64.83Q124.98 64.83 124.11 64.23Q123.54 63.84 123.34 63.3Q123.24 63.03 123.24 62.72Q123.24 61.23 125.01 59.29Q126.79 57.34 129.86 55.76Q129.49 58.16 129.34 60.37Q129.2 62.58 129.24 64.59Q128.53 64.69 127.89 64.76Z" fill="#000000" fill-opacity="1.000000" fill-rule="evenodd"/>
</svg>
